<svg data-name="Vector Smart Object" xmlns="http://www.w3.org/2000/svg" width="30" height="30" viewBox="0 0 30 30">
    <g data-name="그룹 30">
        <g data-name="그룹 29">
            <path data-name="패스 7" d="M26.484 2.344h-1.406V0h-2.344v2.344H7.266V0H4.922v2.344H3.516A3.52 3.52 0 0 0 0 5.859v20.625A3.52 3.52 0 0 0 3.516 30h22.968A3.52 3.52 0 0 0 30 26.484V5.859a3.52 3.52 0 0 0-3.516-3.515zm1.172 24.141a1.173 1.173 0 0 1-1.172 1.172H3.516a1.173 1.173 0 0 1-1.172-1.172V11.016h25.312zm0-17.813H2.344V5.859a1.173 1.173 0 0 1 1.172-1.171h1.406v2.343h2.344V4.688h15.468v2.343h2.344V4.688h1.406a1.173 1.173 0 0 1 1.172 1.172z"/>
        </g>
    </g>
    <g data-name="그룹 32">
        <g data-name="그룹 31">
            <path data-name="사각형 1" d="M4.453 13.477h2.344v2.344H4.453z"/>
        </g>
    </g>
    <g data-name="그룹 34">
        <g data-name="그룹 33">
            <path data-name="사각형 2" d="M9.141 13.477h2.344v2.344H9.141z"/>
        </g>
    </g>
    <g data-name="그룹 36">
        <g data-name="그룹 35">
            <path data-name="사각형 3" d="M13.828 13.477h2.344v2.344h-2.344z"/>
        </g>
    </g>
    <g data-name="그룹 38">
        <g data-name="그룹 37">
            <path data-name="사각형 4" d="M18.516 13.477h2.344v2.344h-2.344z"/>
        </g>
    </g>
    <g data-name="그룹 40">
        <g data-name="그룹 39">
            <path data-name="사각형 5" d="M23.203 13.477h2.344v2.344h-2.344z"/>
        </g>
    </g>
    <g data-name="그룹 42">
        <g data-name="그룹 41">
            <path data-name="사각형 6" d="M4.453 18.164h2.344v2.344H4.453z"/>
        </g>
    </g>
    <g data-name="그룹 44">
        <g data-name="그룹 43">
            <path data-name="사각형 7" d="M9.141 18.164h2.344v2.344H9.141z"/>
        </g>
    </g>
    <g data-name="그룹 46">
        <g data-name="그룹 45">
            <path data-name="사각형 8" d="M13.828 18.164h2.344v2.344h-2.344z"/>
        </g>
    </g>
    <g data-name="그룹 48">
        <g data-name="그룹 47">
            <path data-name="사각형 9" d="M18.516 18.164h2.344v2.344h-2.344z"/>
        </g>
    </g>
    <g data-name="그룹 50">
        <g data-name="그룹 49">
            <path data-name="사각형 10" d="M4.453 22.852h2.344v2.344H4.453z"/>
        </g>
    </g>
    <g data-name="그룹 52">
        <g data-name="그룹 51">
            <path data-name="사각형 11" d="M9.141 22.852h2.344v2.344H9.141z"/>
        </g>
    </g>
    <g data-name="그룹 54">
        <g data-name="그룹 53">
            <path data-name="사각형 12" d="M13.828 22.852h2.344v2.344h-2.344z"/>
        </g>
    </g>
    <g data-name="그룹 56">
        <g data-name="그룹 55">
            <path data-name="사각형 13" d="M18.516 22.852h2.344v2.344h-2.344z"/>
        </g>
    </g>
    <g data-name="그룹 58">
        <g data-name="그룹 57">
            <path data-name="사각형 14" d="M23.203 18.164h2.344v2.344h-2.344z"/>
        </g>
    </g>
</svg>
