<svg data-name="그룹 19514" xmlns="http://www.w3.org/2000/svg" width="52" height="52" viewBox="0 0 52 52">
    <circle data-name="타원 71" cx="26" cy="26" r="26" style="fill:#747478"/>
    <g data-name="그룹 19201" transform="translate(-365 -325)">
        <path data-name="패스 213" d="M259.684 99.8a.978.978 0 1 0 .978.978.978.978 0 0 0-.978-.978z" transform="translate(123.516 249.922)" style="fill:#fff"/>
        <circle data-name="타원 72" cx="1.054" cy="1.054" r="1.054" transform="translate(391.811 349.623)" style="fill:#fff"/>
        <path data-name="패스 214" d="M256.057 49.036h-20.812a3.8 3.8 0 0 0-3.8 3.8v12.353a3.8 3.8 0 0 0 3.8 3.8h7.355l2.5 5.89s.172.511.589.511.589-.511.589-.511l2.5-5.89h7.283a3.8 3.8 0 0 0 3.8-3.8V52.837a3.8 3.8 0 0 0-3.804-3.801zm-15.686 10.919a2.354 2.354 0 0 1-2.347 2.323 1.952 1.952 0 0 1-1.413-.6v.407h-1.7v-7.011c-.007 0-.008 0 0 0 .105.017 1.7 0 1.7 0v2.682c.4-.682 1.556-.67 1.556-.67 2.519.23 2.204 2.869 2.204 2.869zm2.993-2.658v4.8H241.7v-4.752c0-.646-.8-.826-.8-.826v-1.677a2.3 2.3 0 0 1 2.464 2.458zm3.945 4.983a2.577 2.577 0 1 1 2.789-2.568 2.685 2.685 0 0 1-2.789 2.568zm9.117 0a2.374 2.374 0 0 1-2.454 2.439h-.754v-1.58h.455s1.042.1 1.03-1.508c0 0-.2.649-1.664.649a2.194 2.194 0 0 1-2.071-2.17v-.766a2.366 2.366 0 0 1 2.323-2.263 1.694 1.694 0 0 1 1.449.646v-.515h1.688z" transform="translate(145.556 290.965)" style="fill:#fff"/>
        <circle data-name="타원 73" cx="1.03" cy="1.03" r="1.03" transform="translate(398.306 349.646)" style="fill:#fff"/>
    </g>
</svg>
