<svg data-name="구성 요소 63 – 1" xmlns="http://www.w3.org/2000/svg" width="52" height="52" viewBox="0 0 52 52">
    <g data-name="그룹 19515">
        <circle data-name="타원 68" cx="4.4" cy="4.4" r="4.4" transform="translate(21.4 21.398)" style="fill:#747478"/>
        <path data-name="패스 210" d="M49.327 29.469h-11a5.465 5.465 0 0 0-3.9 1.4 5.465 5.465 0 0 0-1.4 3.9v11a5.512 5.512 0 0 0 1.5 4 5.637 5.637 0 0 0 3.9 1.4h10.9a5.465 5.465 0 0 0 3.9-1.4 5.123 5.123 0 0 0 1.5-3.9v-11a5.637 5.637 0 0 0-1.4-3.9 5.354 5.354 0 0 0-4-1.5zm-5.5 17.6a6.8 6.8 0 0 1 0-13.6 6.8 6.8 0 1 1 0 13.6zm7.1-12.3a1.6 1.6 0 1 1 1.6-1.6 1.58 1.58 0 0 1-1.6 1.6z" transform="translate(-18.027 -14.471)" style="fill:#747478"/>
        <path data-name="패스 211" d="M45.427 15.469a26 26 0 1 0 26 26 25.981 25.981 0 0 0-26-26zM59.272 47.6a8.378 8.378 0 0 1-2.325 6.024 8.225 8.225 0 0 1-5.919 2.22h-11.52a8.225 8.225 0 0 1-5.919-2.22 7.963 7.963 0 0 1-2.325-6.024V35.973a7.822 7.822 0 0 1 8.244-8.244h11.626a7.794 7.794 0 0 1 8.138 8.244z" transform="translate(-19.427 -15.469)" style="fill:#747478"/>
    </g>
</svg>
