<svg xmlns="http://www.w3.org/2000/svg" width="38" height="36" viewBox="0 0 38 36">
    <g data-name="그룹 19164">
        <path data-name="패스 11" d="M111.117 39.466c-10.494 0-19 6.934-19 15.49 0 5.568 3.6 10.448 9.014 13.179-.4 1.529-1.44 5.542-1.648 6.4-.258 1.066.377 1.052.8.766.327-.225 5.206-3.647 7.311-5.123a23.3 23.3 0 0 0 3.527.267c10.494 0 19-6.934 19-15.489s-8.506-15.49-19-15.49" transform="translate(-92.117 -39.466)" style="fill:#2a1617"/>
        <path data-name="패스 12" d="M95.678 47.359h1.958s.012 5.575 0 6.874c0 .948 2.037.961 2.034.014l.009-6.815s.656 0 1.948.006a1 1 0 0 0 0-1.985c-1.371 0-5.955-.04-5.955-.04-1.149 0-1.145 1.946 0 1.946" transform="translate(-89.927 -34.733)" style="fill:#ffd900"/>
        <path data-name="패스 13" d="m102.293 47.7 1.09 3.538h-2.271zm-1.221-1.658c-.482 1.1-2.222 6.294-2.8 7.672-.418 1 1.383 1.808 1.8.812l.392-1.42h3.582s-.123.058.353 1.36c.385 1.053 2.245.323 1.859-.731-.55-1.506-2.453-6.925-2.8-7.693a1.46 1.46 0 0 0-1.289-.609 1.126 1.126 0 0 0-1.1.609" transform="translate(-87.187 -34.716)" style="fill:#ffd900"/>
        <path data-name="패스 14" d="M103.033 46.368c0 1.765.01 7.454.01 7.454s-.157 1.131.778 1.131 3.011-.011 3.931-.011.915-2.029-.005-2.029-2.6-.01-2.6-.01.008-5.262.006-6.541a1.069 1.069 0 0 0-2.12.005" transform="translate(-83.284 -34.714)" style="fill:#ffd900"/>
        <path data-name="패스 15" d="M106.291 46.086c.02.774-.024 7.774-.024 8.292 0 .819 2.011.817 2.01 0v-2.754l.591-.491 2.581 3.651c.522.713 2.164-.576 1.643-1.289l-2.741-3.743s1.861-2.085 2.594-2.841c.428-.44-.9-1.824-1.324-1.383-.415.426-3.329 3.451-3.329 3.451s.026-1.9 0-2.949c-.01-.4-.482-.591-.964-.591-.517 0-1.045.221-1.034.648" transform="translate(-80.675 -34.714)" style="fill:#ffd900"/>
    </g>
</svg>
