<svg xmlns="http://www.w3.org/2000/svg" width="35.639" height="30.628" viewBox="0 0 35.639 30.628">
    <g data-name="그룹 18530">
        <path data-name="패스 9" d="m35.24 28.305-2.884-2.884 1.913-1.913a2.428 2.428 0 0 0-1.04-4.05l-8.1-2.353a2.43 2.43 0 0 0-3.009 3.01l2.352 8.1a2.429 2.429 0 0 0 4.05 1.04l1.913-1.913 2.885 2.884a1.361 1.361 0 0 0 1.925-1.925zm-8.3-1.322-2.06-7.113 7.113 2.066z"/>
        <path data-name="패스 10" d="M31.309 0H4.081A4.088 4.088 0 0 0-.003 4.084v17.7a4.088 4.088 0 0 0 4.084 4.084h14.974a1.67 1.67 0 0 0 1.4-1.645c0-.752-.653-1.758-1.4-1.758H4.764a1.363 1.363 0 0 1-1.361-1.361V5.134l13.54 10.727a1.363 1.363 0 0 0 1.507 0l13.54-9.437v9.226c0 .751.937 1.361 1.689 1.361s1.715-.61 1.715-1.361V4.084A4.088 4.088 0 0 0 31.309 0zM17.696 12.411 6.275 3.403h24.312z"/>
    </g>
</svg>
