<svg xmlns="http://www.w3.org/2000/svg" width="52" height="52" viewBox="0 0 52 52">
    <path data-name="패스 212" d="M26 123.307a26 26 0 1 1-26 26 26.012 26.012 0 0 1 26-26zm15.571 18.177a4.07 4.07 0 0 0-2.873-2.873c-2.535-.679-12.7-.679-12.7-.679s-10.163 0-12.7.679a4.07 4.07 0 0 0-2.873 2.873 45.4 45.4 0 0 0 0 15.645A4.07 4.07 0 0 0 13.3 160c2.535.679 12.7.679 12.7.679s10.163 0 12.7-.679a4.07 4.07 0 0 0 2.873-2.873 42.3 42.3 0 0 0 .679-7.823 42.3 42.3 0 0 0-.679-7.823zm-18.821 12.7v-9.75l8.444 4.875-8.444 4.875z" transform="translate(0 -123.307)" style="fill:#747478;fill-rule:evenodd"/>
</svg>
