<svg xmlns="http://www.w3.org/2000/svg" width="39.054" height="34" viewBox="0 0 39.054 34">
  <defs>
    <style>
      .cls-1 {
        stroke: #000;
      }
    </style>
  </defs>
  <path id="패스_219" data-name="패스 219" class="cls-1" d="M618.663,668.824a1.744,1.744,0,0,0-1.6-1.027h-34.47a1.762,1.762,0,0,0-1.336,2.911l13.561,15.78v8.887a1.817,1.817,0,0,0,.923,1.58l6.392,3.6a1.814,1.814,0,0,0,2.7-1.58V686.488l13.561-15.78A1.745,1.745,0,0,0,618.663,668.824Zm-15.42,16.737a.907.907,0,0,0-.219.591v12.829l-6.392-3.606v-9.223a.907.907,0,0,0-.219-.591L582.7,669.61h34.247Z" transform="translate(-580.3 -667.297)"/>
</svg>
