<svg xmlns="http://www.w3.org/2000/svg" width="27.961" height="22.723" viewBox="0 0 27.961 22.723">
  <defs>
    <style>
      .cls-1 {
        fill: #55acee;
      }
    </style>
  </defs>
  <path id="rect2989" class="cls-1" d="M109.21,119.944a5.755,5.755,0,0,0-5.439,7.043,16.288,16.288,0,0,1-11.824-5.994,5.739,5.739,0,0,0,1.776,7.659,5.725,5.725,0,0,1-2.6-.719c0,.024,0,.05,0,.074a5.739,5.739,0,0,0,4.6,5.623,5.769,5.769,0,0,1-1.512.2,5.679,5.679,0,0,1-1.079-.1,5.74,5.74,0,0,0,5.356,3.984A11.613,11.613,0,0,1,90,140.089a16.229,16.229,0,0,0,8.792,2.578c10.552,0,16.322-8.741,16.322-16.322,0-.249,0-.5-.015-.745a11.618,11.618,0,0,0,2.862-2.969,11.413,11.413,0,0,1-3.294.9,5.748,5.748,0,0,0,2.523-3.174,11.489,11.489,0,0,1-3.644,1.394,5.729,5.729,0,0,0-4.188-1.811c-.049,0-.1,0-.149,0Z" transform="translate(-90 -119.944)"/>
</svg>
