<svg id="그룹_18815" data-name="그룹 18815" xmlns="http://www.w3.org/2000/svg" width="21.132" height="19.484" viewBox="0 0 21.132 19.484">
  <defs>
    <style>
      .cls-1 {
        fill: #fff;
      }
    </style>
  </defs>
  <path id="패스_221" data-name="패스 221" class="cls-1" d="M513.748,543.227a4.346,4.346,0,0,1-2.958-1.133,3.682,3.682,0,0,1,0-5.479l5.858-5.425a4.433,4.433,0,0,1,5.916,0,1.019,1.019,0,0,1,0,1.519,1.226,1.226,0,0,1-1.64,0,1.973,1.973,0,0,0-2.636,0l-5.858,5.425a1.639,1.639,0,0,0,0,2.441,1.973,1.973,0,0,0,2.636,0l2.764-2.56a1.226,1.226,0,0,1,1.64,0,1.019,1.019,0,0,1,0,1.519l-2.764,2.56A4.346,4.346,0,0,1,513.748,543.227Z" transform="translate(-509.569 -523.743)"/>
  <path id="패스_222" data-name="패스 222" class="cls-1" d="M585,480.307a4.329,4.329,0,0,1-2.958-1.131,1.019,1.019,0,0,1,0-1.519,1.226,1.226,0,0,1,1.64,0,1.973,1.973,0,0,0,2.636,0l5.833-5.4a1.639,1.639,0,0,0,0-2.441,1.973,1.973,0,0,0-2.636,0l-2.739,2.537a1.226,1.226,0,0,1-1.64,0,1.019,1.019,0,0,1,0-1.519l2.739-2.537a4.428,4.428,0,0,1,5.916,0,3.683,3.683,0,0,1,0,5.479l-5.833,5.4A4.328,4.328,0,0,1,585,480.307Z" transform="translate(-573.886 -467.162)"/>
</svg>
