<svg id="그룹_19537" data-name="그룹 19537" xmlns="http://www.w3.org/2000/svg" width="33.89" height="22.291" viewBox="0 0 33.89 22.291">
  <defs>
    <style>
      .cls-1 {
        fill: #d95032;
      }
    </style>
  </defs>
  <g id="그룹_19536" data-name="그룹 19536" transform="translate(0 0)">
    <path id="패스_687" data-name="패스 687" class="cls-1" d="M26.282,52.417a11.147,11.147,0,1,1,0-22.291,11.463,11.463,0,0,1,7.444,2.734L30.84,36.117a7.019,7.019,0,0,0-4.558-1.673,6.829,6.829,0,1,0,0,13.655c3.244,0,5.367-1.554,6.056-4.342h-6V39.439H36.978V41.6C36.978,48.069,32.679,52.417,26.282,52.417Z" transform="translate(-14.933 -30.126)"/>
  </g>
  <path id="패스_688" data-name="패스 688" class="cls-1" d="M99.147,51.728h-3.29v-3.29H93.224v3.29h-3.29V54.36h3.29v3.29h2.632V54.36h3.29Z" transform="translate(-65.257 -42.413)"/>
</svg>
