<svg xmlns="http://www.w3.org/2000/svg" width="21.2" height="26.2" viewBox="0 0 21.2 26.2">
  <defs>
    <style>
      .cls-1 {
        fill: #fff;
      }

      .cls-2 {
        fill: #ca1c1d;
      }

      .cls-3 {
        stroke: #000;
        stroke-width: 0.2px;
      }
    </style>
  </defs>
  <g id="그룹_19238" data-name="그룹 19238" transform="translate(-480.917 -362.97)">
    <path id="패스_527" data-name="패스 527" class="cls-1" d="M502,368.625a.512.512,0,0,0-.154-.5l-5.52-4.923a.525.525,0,0,0-.438-.123c-.017,0-.032-.01-.05-.01H482.6a1.582,1.582,0,0,0-1.587,1.574V387.5a1.582,1.582,0,0,0,1.587,1.573h17.826a1.582,1.582,0,0,0,1.588-1.573V368.716A.479.479,0,0,0,502,368.625Z" transform="translate(0)"/>
    <g id="그룹_19237" data-name="그룹 19237" transform="translate(486.088 370.926)">
      <path id="패스_528" data-name="패스 528" class="cls-2" d="M501.588,392.279a.524.524,0,0,1-.244-.06l-2.788-1.453-2.788,1.453a.525.525,0,0,1-.551-.039.516.516,0,0,1-.208-.508l.532-3.078-2.256-2.181a.516.516,0,0,1-.132-.532.522.522,0,0,1,.422-.353l3.117-.449,1.394-2.8a.526.526,0,0,1,.939,0l1.394,2.8,3.117.449a.521.521,0,0,1,.423.353.515.515,0,0,1-.132.532l-2.256,2.181.533,3.078a.517.517,0,0,1-.209.508A.525.525,0,0,1,501.588,392.279Z" transform="translate(-493.128 -381.99)"/>
    </g>
    <path id="패스_529" data-name="패스 529" class="cls-3" d="M502,368.625a.512.512,0,0,0-.154-.5l-5.52-4.923a.525.525,0,0,0-.438-.123c-.017,0-.032-.01-.05-.01H482.6a1.582,1.582,0,0,0-1.587,1.574V387.5a1.582,1.582,0,0,0,1.587,1.573h17.826a1.582,1.582,0,0,0,1.588-1.573V368.716A.479.479,0,0,0,502,368.625Zm-5.5-3.871,3.632,3.239H496.5Zm3.932,23.278H482.6a.538.538,0,0,1-.54-.535V364.644a.539.539,0,0,1,.54-.536h12.847v4.4a.521.521,0,0,0,.523.519h5V387.5A.538.538,0,0,1,500.429,388.032Z" transform="translate(0)"/>
  </g>
</svg>
