<svg xmlns="http://www.w3.org/2000/svg" width="27" height="32" viewBox="0 0 27 32">
  <defs>
    <style>
      .cls-1 {
        stroke: #000;
      }
    </style>
  </defs>
  <g id="그룹_18755" data-name="그룹 18755" transform="translate(-627.5 -818.5)">
    <path id="패스_22" data-name="패스 22" class="cls-1" d="M127.894,1110.64H111.367a1.78,1.78,0,0,1-1.8-1.757l-1.12-19.257a.391.391,0,0,1,.374-.409.4.4,0,0,1,.419.365l1.121,19.279a1,1,0,0,0,1,1h16.527a.993.993,0,0,0,1-.981l1.122-19.3a.4.4,0,0,1,.419-.365.391.391,0,0,1,.374.409l-1.121,19.279A1.775,1.775,0,0,1,127.894,1110.64Z" transform="translate(521.431 -260.64)"/>
    <g id="그룹_18627" data-name="그룹 18627" transform="translate(633.972 828.575)">
      <path id="패스_23" data-name="패스 23" class="cls-1" d="M119.264,1110.639a.388.388,0,0,1-.388-.378l-.547-20.648a.388.388,0,0,1,.378-.4.4.4,0,0,1,.4.378l.547,20.647a.388.388,0,0,1-.378.4Z" transform="translate(-118.329 -1089.215)"/>
    </g>
    <g id="그룹_18628" data-name="그룹 18628" transform="translate(638.441 828.575)">
      <path id="패스_24" data-name="패스 24" class="cls-1" d="M130.235,1110.639a.388.388,0,0,1-.388-.388V1089.6a.388.388,0,0,1,.776,0v20.648A.388.388,0,0,1,130.235,1110.639Z" transform="translate(-129.847 -1089.215)"/>
    </g>
    <g id="그룹_18629" data-name="그룹 18629" transform="translate(642.91 828.575)">
      <path id="패스_25" data-name="패스 25" class="cls-1" d="M141.752,1110.639a.388.388,0,0,1-.388-.388V1089.6a.388.388,0,0,1,.776,0v20.648A.388.388,0,0,1,141.752,1110.639Z" transform="translate(-141.364 -1089.215)"/>
    </g>
    <g id="그룹_18630" data-name="그룹 18630" transform="translate(646.832 828.575)">
      <path id="패스_26" data-name="패스 26" class="cls-1" d="M151.859,1110.639h-.01a.388.388,0,0,1-.378-.4l.548-20.647a.388.388,0,1,1,.776.02l-.547,20.648A.388.388,0,0,1,151.859,1110.639Z" transform="translate(-151.471 -1089.215)"/>
    </g>
    <path id="패스_27" data-name="패스 27" class="cls-1" d="M127.229,1083.216h-21.25a2.354,2.354,0,0,1-2.375-2.328v-.416a2.354,2.354,0,0,1,2.375-2.328h21.25a2.354,2.354,0,0,1,2.375,2.328v.416A2.355,2.355,0,0,1,127.229,1083.216Zm-21.25-4.3a1.569,1.569,0,0,0-1.583,1.552v.416a1.569,1.569,0,0,0,1.583,1.552h21.25a1.57,1.57,0,0,0,1.583-1.552v-.416a1.57,1.57,0,0,0-1.583-1.552Z" transform="translate(524.396 -254.365)"/>
    <path id="패스_28" data-name="패스 28" class="cls-1" d="M133.67,1071.469a.388.388,0,0,1-.388-.388c0-2.308-1.508-4.186-3.361-4.186s-3.361,1.878-3.361,4.186a.388.388,0,0,1-.776,0c0-2.736,1.856-4.962,4.137-4.962s4.137,2.226,4.137,4.962A.388.388,0,0,1,133.67,1071.469Z" transform="translate(511.078 -247.119)"/>
  </g>
</svg>
