<svg xmlns="http://www.w3.org/2000/svg" width="127" height="128" viewBox="0 0 127 128">
    <g data-name="그룹 19234">
        <g data-name="그룹 19231">
            <path data-name="패스 509" d="M363.182 412.5c-2.31 0-4.182-1.194-4.182-2.667V287.167c0-1.473 1.872-2.667 4.182-2.667s4.183 1.194 4.183 2.667v122.666c0 1.473-1.872 2.667-4.183 2.667z" transform="translate(-359 -284.5)" style="fill:#272727"/>
        </g>
        <g data-name="그룹 19232">
            <path data-name="패스 510" d="M383.151 369.307v-79.362L498.44 333.36z" transform="translate(-371.44 -287.308)" style="fill:#ca1c1d"/>
        </g>
        <g data-name="그룹 19233">
            <path data-name="패스 511" d="m477.83 376.253-2.435-2.524c2.047-.568 5.053 2.7 5.379-1.932a7.659 7.659 0 0 1-1.394.484 5.025 5.025 0 0 1-1.893.018c-1.753-.5-2.581-3.112-1.832-5.521.594-1.912 2.047-2.534 4.106-1.954a10.52 10.52 0 0 0 2.632.035 61.966 61.966 0 0 1-.12 8.294c-.153 1.126-1.629 2.072-2.5 3.1zm3.249-8.151a2.157 2.157 0 0 0-2.04-1.933c-1.566-.24-1.73 1.155-1.716 2.353.012 1.11.1 2.332 1.6 2.357 1.594.027 1.702-1.234 2.156-2.779z" transform="translate(-418.948 -325.817)" style="fill:#fff"/>
            <path data-name="패스 512" d="M534.2 369.48c-1.32.052-2.643.175-3.959.126a3.779 3.779 0 0 1-1.962-.582c-1.531-1.088-1.92-4.327-.858-6.221.9-1.6 2.1-1.879 4.747-.959.067-1.1.13-2.143.2-3.343l1.83-.257zm-5.559-4.081c.144 1.139.141 2.632 1.885 2.681 1.54.044 1.757-1.27 1.774-2.46.018-1.3-.031-2.771-1.815-2.808-1.537-.031-1.721 1.25-1.849 2.588z" transform="translate(-445.444 -322.532)" style="fill:#fff"/>
            <path data-name="패스 513" d="M398.033 358.245c2.186.012 4.373.006 6.559.046.773.014 1.941-.277 1.715 1.064-.071.425-1.021.747-1.612 1.023a5.174 5.174 0 0 1-1.339.182v8.919h-2.214v-8.859l-3.109-.438z" transform="translate(-379.106 -322.532)" style="fill:#fff"/>
            <path data-name="패스 514" d="M460.674 364.009c1.7-.942 2.109-3.24 4.278-2.394.02.085.106.274.067.3-2.577 2-1.765 4.046-.121 6.138a7.584 7.584 0 0 1 .684 1.371c-3.028 1.155-2.695-2.141-4.5-3.161a11.864 11.864 0 0 1-.439 2.159 5.218 5.218 0 0 1-1.012 1.228c-.306-.383-.866-.76-.876-1.15a167.449 167.449 0 0 1 0-8.88c.013-.428.635-.839.975-1.258.314.445.856.869.9 1.339.123 1.354.044 2.724.044 4.308z" transform="translate(-410.354 -322.593)" style="fill:#fff"/>
            <path data-name="패스 515" d="M418.927 362.055c3.418-1.419 4.74-.571 4.81 2.7.024 1.159-.037 2.322.017 3.48.066 1.41-.567 1.691-2 1.148a36.466 36.466 0 0 0-.06-4.515c-.08-.642-.817-1.2-1.254-1.8-.49.577-1.273 1.094-1.4 1.743-.24 1.178 0 2.448-.155 3.653-.056.433-.68.792-1.044 1.186-.295-.4-.835-.785-.845-1.187-.072-2.963-.08-5.93.011-8.891.013-.409.678-.8 1.041-1.2.3.4.763.766.848 1.206a13.963 13.963 0 0 1 .031 2.477z" transform="translate(-388.842 -322.6)" style="fill:#fff"/>
            <path data-name="패스 516" d="M441.833 364.943c1.483-.191 2.726-.4 3.977-.5a2.164 2.164 0 0 1 2.582 2.034 42.485 42.485 0 0 1 .077 5.411.931.931 0 0 1-1.853-.038c-.116-1.281.084-2.6-.131-3.858-.112-.655-.842-1.2-1.293-1.8-.476.579-1.24 1.1-1.365 1.748-.23 1.184.01 2.452-.144 3.66-.055.43-.686.788-1.054 1.179-.3-.389-.826-.766-.846-1.168-.092-1.867-.048-3.742-.038-5.613.002-.38.062-.758.088-1.055z" transform="translate(-401.613 -325.724)" style="fill:#fff"/>
            <path data-name="패스 517" d="M499.757 368.6c0 2.591-1.449 4.254-3.7 4.232-2.193-.021-3.572-1.6-3.6-4.12-.033-2.646 1.336-4.3 3.585-4.331s3.711 1.637 3.715 4.219zm-1.76.033c-.128-1.18-.16-2.582-1.821-2.652-1.688-.072-1.895 1.267-1.905 2.556-.011 1.264.092 2.639 1.756 2.713 1.691.073 1.819-1.303 1.973-2.619z" transform="translate(-427.743 -325.695)" style="fill:#fff"/>
            <path data-name="패스 518" d="M516.982 368.614c0 2.587-1.465 4.246-3.725 4.213-2.123-.032-3.625-1.725-3.669-4.136-.045-2.485 1.5-4.294 3.688-4.317 2.232-.025 3.704 1.66 3.706 4.24zm-1.762.022c-.2-1.2-.162-2.654-1.88-2.664-1.672-.009-1.906 1.355-1.908 2.61s.181 2.626 1.85 2.667c1.727.042 1.727-1.404 1.938-2.614z" transform="translate(-436.568 -325.692)" style="fill:#fff"/>
            <path data-name="패스 519" d="M436.248 364.115c-.131 2.61-.232 5.108-.416 7.6-.022.306-.492.581-.754.87-.25-.292-.694-.569-.719-.878-.194-2.491-.309-4.988-.454-7.592z" transform="translate(-397.585 -325.559)" style="fill:#fff"/>
            <path data-name="패스 520" d="M440.314 355.76c-1.516.926-2.523 1.591-3.577 2.174-1.988 1.1-2.659.705-2.664-1.5v-1.31z" transform="translate(-397.67 -320.921)" style="fill:#fff"/>
        </g>
    </g>
</svg>
