<svg xmlns="http://www.w3.org/2000/svg" width="73" height="77" viewBox="0 0 73 77">
    <defs>
        <clipPath id="xn57xkgs4a">
            <path data-name="사각형 8" style="fill:#fce8e8" d="M0 0h35.052v62.999H0z"/>
        </clipPath>
    </defs>
    <g data-name="그룹 59">
        <path data-name="패스 73" d="M449.5 192.5h-31.682a5.453 5.453 0 0 1-5.488-5.417v-65.1a5.453 5.453 0 0 1 5.488-5.418H449.5a5.453 5.453 0 0 1 5.488 5.418v65.1a5.452 5.452 0 0 1-5.488 5.417" transform="translate(-397.161 -116.031)" style="fill:#fff"/>
    </g>
    <g data-name="그룹 60">
        <path data-name="선 17" style="fill:#fff" d="M0 0v1.784" transform="translate(36.5 37.608)"/>
    </g>
    <g data-name="그룹 64" style="mix-blend-mode:darken;isolation:isolate">
        <g data-name="그룹 63">
            <path data-name="사각형 7" style="fill:#fce8e8" d="M0 0h35.052v62.999H0z" transform="translate(18.974 4.913)"/>
            <g data-name="그룹 62" style="clip-path:url(#xn57xkgs4a)" transform="translate(18.974 4.913)">
                <g data-name="그룹 61">
                    <path data-name="패스 74" d="M448.054 185.7h-25.728a4.626 4.626 0 0 1-4.662-4.59v-53.82a4.626 4.626 0 0 1 4.662-4.59h25.728a4.626 4.626 0 0 1 4.662 4.59v53.82a4.626 4.626 0 0 1-4.662 4.59" transform="translate(-417.664 -122.704)" style="fill:#fce8e8"/>
                </g>
            </g>
        </g>
    </g>
    <g data-name="그룹 65">
        <path data-name="패스 75" d="M52.344 77h-31.69a5.991 5.991 0 0 1-6.022-5.946V5.947A5.992 5.992 0 0 1 20.654 0h31.69a5.992 5.992 0 0 1 6.023 5.947v65.107A5.991 5.991 0 0 1 52.344 77zM20.654 1.056a4.927 4.927 0 0 0-4.952 4.891v65.107a4.926 4.926 0 0 0 4.952 4.889h31.69a4.927 4.927 0 0 0 4.953-4.889V5.947a4.928 4.928 0 0 0-4.953-4.891z"/>
    </g>
    <g data-name="그룹 72">
        <g data-name="그룹 66">
            <path data-name="패스 76" d="M5.4 39.033H.535a.535.535 0 1 1 0-1.07H5.4a.535.535 0 0 1 0 1.07z"/>
        </g>
        <g data-name="그룹 67">
            <path data-name="패스 77" d="M3.572 50.338a.535.535 0 0 1-.268-1l4.213-2.432a.535.535 0 1 1 .535.926l-4.21 2.437a.536.536 0 0 1-.27.069z"/>
        </g>
        <g data-name="그룹 68">
            <path data-name="패스 78" d="M7.785 30.165a.529.529 0 0 1-.267-.072l-4.213-2.432a.535.535 0 1 1 .535-.927l4.213 2.432a.535.535 0 0 1-.268 1z"/>
        </g>
        <g data-name="그룹 69">
            <path data-name="패스 79" d="M72.465 39.033H67.6a.535.535 0 1 1 0-1.07h4.865a.535.535 0 1 1 0 1.07z"/>
        </g>
        <g data-name="그룹 70">
            <path data-name="패스 80" d="M69.429 50.336a.533.533 0 0 1-.267-.071l-4.214-2.433a.535.535 0 1 1 .535-.926l4.214 2.432a.535.535 0 0 1-.268 1z"/>
        </g>
        <g data-name="그룹 71">
            <path data-name="패스 81" d="M65.216 30.164a.535.535 0 0 1-.268-1l4.214-2.432a.535.535 0 0 1 .535.927l-4.214 2.432a.527.527 0 0 1-.267.073z"/>
        </g>
    </g>
    <g data-name="그룹 73">
        <path data-name="선 18" style="fill:#fff" d="M0 0h3.848" transform="translate(34.576 71.486)"/>
    </g>
    <g data-name="그룹 74">
        <path data-name="패스 82" d="M38.424 72.022h-3.848a.535.535 0 1 1 0-1.07h3.848a.535.535 0 0 1 0 1.07z"/>
    </g>
    <g data-name="그룹 75">
        <path data-name="패스 83" d="M450.042 165.236a13.054 13.054 0 1 1-13.054-13.054 13.054 13.054 0 0 1 13.054 13.054" transform="translate(-400.487 -126.736)" style="fill:#ff5f49"/>
        <path data-name="패스 84" d="M436.844 178.5a13.411 13.411 0 1 1 13.411-13.411 13.426 13.426 0 0 1-13.411 13.411zm0-26.108a12.7 12.7 0 1 0 12.7 12.7 12.712 12.712 0 0 0-12.7-12.692z" transform="translate(-400.344 -126.593)" style="fill:#fff"/>
    </g>
    <g data-name="그룹 76">
        <path data-name="패스 85" d="M36.5 52.089A13.589 13.589 0 1 1 50.09 38.5 13.6 13.6 0 0 1 36.5 52.089zm0-26.108A12.519 12.519 0 1 0 49.02 38.5 12.533 12.533 0 0 0 36.5 25.979z"/>
    </g>
    <g data-name="그룹 77">
        <path data-name="패스 86" d="M34.903 43.999a.537.537 0 0 1-.379-.157l-4.976-4.976a.535.535 0 1 1 .757-.757l4.6 4.6 7.792-7.792a.535.535 0 1 1 .757.757l-8.171 8.17a.535.535 0 0 1-.38.155z"/>
    </g>
</svg>
