<svg xmlns="http://www.w3.org/2000/svg" width="102" height="50" viewBox="0 0 102 50">
    <g data-name="그룹 84">
        <g data-name="그룹 78">
            <path data-name="패스 87" d="M5.4 24.926H.535a.535.535 0 0 1 0-1.07H5.4a.535.535 0 0 1 0 1.07z"/>
        </g>
        <g data-name="그룹 79">
            <path data-name="패스 88" d="M3.571 36.228a.535.535 0 0 1-.267-1l4.213-2.432a.535.535 0 1 1 .535.927l-4.213 2.432a.529.529 0 0 1-.268.073z"/>
        </g>
        <g data-name="그룹 80">
            <path data-name="패스 89" d="M7.784 16.056a.536.536 0 0 1-.267-.072l-4.213-2.432a.535.535 0 1 1 .535-.927l4.213 2.432a.535.535 0 0 1-.268 1z"/>
        </g>
        <g data-name="그룹 81">
            <path data-name="패스 90" d="M101.465 24.926H96.6a.535.535 0 1 1 0-1.07h4.865a.535.535 0 0 1 0 1.07z"/>
        </g>
        <g data-name="그룹 82">
            <path data-name="패스 91" d="M98.429 36.228a.527.527 0 0 1-.267-.072l-4.214-2.432a.535.535 0 0 1 .535-.927l4.214 2.432a.535.535 0 0 1-.268 1z"/>
        </g>
        <g data-name="그룹 83">
            <path data-name="패스 92" d="M94.216 16.056a.535.535 0 0 1-.268-1l4.214-2.432a.535.535 0 0 1 .535.927l-4.214 2.432a.534.534 0 0 1-.267.073z"/>
        </g>
    </g>
    <g data-name="그룹 90">
        <g data-name="그룹 85">
            <path data-name="패스 93" d="M463.925 253.636a5.154 5.154 0 0 0-5.181-5.126h-62.168a5.154 5.154 0 0 0-5.181 5.126v38.789a5.154 5.154 0 0 0 5.18 5.127h62.169a5.154 5.154 0 0 0 5.18-5.127v-37.886z" transform="translate(-376.66 -248.088)" style="fill:#fff"/>
        </g>
        <g data-name="그룹 86">
            <path data-name="패스 94" d="M458.744 248.51h-62.168a5.093 5.093 0 0 0-5.181 5v.88l36.265 28.742 36.265-28.742v-.88a5.093 5.093 0 0 0-5.181-5z" transform="translate(-376.66 -248.088)" style="fill:#fce8e8"/>
        </g>
        <g data-name="그룹 87">
            <path data-name="패스 95" d="M459.438 309.216v-.434l-30.2-21.924-30.2 21.924v.434a6.747 6.747 0 0 1-.773-.049l-1.362-.159 32.333-23.474 32.333 23.474-1.362.159a6.717 6.717 0 0 1-.769.049z" transform="translate(-378.24 -259.216)" style="fill:#fce8e8"/>
        </g>
        <g data-name="그룹 88">
            <path data-name="패스 96" d="M81.198 50h-60.4a6.575 6.575 0 0 1-6.6-6.534V6.534A6.575 6.575 0 0 1 20.798 0h60.4a6.575 6.575 0 0 1 6.6 6.534v36.932a6.575 6.575 0 0 1-6.6 6.534zm-60.4-48.941a5.509 5.509 0 0 0-5.531 5.475v36.932a5.509 5.509 0 0 0 5.531 5.475h60.4a5.51 5.51 0 0 0 5.531-5.475V6.534a5.509 5.509 0 0 0-5.531-5.475z"/>
        </g>
        <g data-name="그룹 89">
            <path data-name="패스 97" d="M51 35.58a.532.532 0 0 1-.33-.113L14.405 7.049a.535.535 0 1 1 .66-.842L51 34.366 86.934 6.207a.535.535 0 1 1 .661.842L51.33 35.467a.533.533 0 0 1-.33.113z"/>
        </g>
    </g>
    <g data-name="그룹 93">
        <g data-name="그룹 91">
            <path data-name="패스 98" d="M450.042 278a13.054 13.054 0 1 1-13.054-13.054A13.054 13.054 0 0 1 450.042 278" transform="translate(-385.987 -253.055)" style="fill:#ff5f49"/>
            <path data-name="패스 99" d="M51 38.355a13.411 13.411 0 1 1 13.411-13.411A13.426 13.426 0 0 1 51 38.355zm0-26.108a12.7 12.7 0 1 0 12.7 12.7 12.712 12.712 0 0 0-12.7-12.7z"/>
        </g>
        <g data-name="그룹 92">
            <path data-name="패스 100" d="M49.403 30.457a.534.534 0 0 1-.378-.157l-4.976-4.976a.535.535 0 1 1 .756-.757l4.6 4.6 7.792-7.792a.535.535 0 0 1 .757.757l-8.171 8.17a.534.534 0 0 1-.38.155z"/>
        </g>
    </g>
</svg>
